<?xml version="1.0" encoding="utf-8"?>
<!-- Generator: Adobe Illustrator 22.1.0, SVG Export Plug-In . SVG Version: 6.00 Build 0)  -->
<svg version="1.1" id="图层_1" xmlns="http://www.w3.org/2000/svg" xmlns:xlink="http://www.w3.org/1999/xlink" x="0px" y="0px"
	 viewBox="0 0 24 24" style="enable-background:new 0 0 24 24;" xml:space="preserve">
<style type="text/css">
	.st0{fill:#999999;}
</style>
<path class="st0" d="M20.4,0.4H3.7C1.7,0.4,0,2.1,0,4.1V20c0,2,1.6,3.6,3.6,3.6h16.7c2,0,3.6-1.6,3.6-3.6V4.1
	C24,2.1,22.5,0.4,20.4,0.4z M22.2,20.1c0,1.1-0.8,1.9-1.9,1.9H3.7c-1.1,0-1.9-0.8-1.9-1.9v-16c0-1.1,0.8-1.9,1.9-1.9h16.7
	c1.1,0,1.9,0.8,1.9,1.9L22.2,20.1L22.2,20.1z M8.8,6.2L6.2,8.8L5.1,7.6c-0.4-0.4-0.9-0.4-1.2,0C3.5,8,3.5,8.5,3.9,8.8l1.9,1.9
	c0.1,0.1,0.4,0.2,0.7,0.2s0.4-0.1,0.7-0.2l3.2-3.2c0.4-0.4,0.4-0.9,0-1.2C9.7,5.9,9.2,5.9,8.8,6.2z M19.7,7.6h-8.1
	c-0.6,0-0.8,0.4-0.8,0.8c0,0.6,0.4,0.8,0.8,0.8h8.1c0.6,0,0.8-0.4,0.8-0.8S20.1,7.6,19.7,7.6z M6.7,12.9c-1.5,0-2.7,1.2-2.7,2.7
	s1.2,2.7,2.7,2.7s2.7-1.2,2.7-2.7C9.4,13.9,8.1,12.9,6.7,12.9z M6.7,16.4c-0.6,0-0.9-0.4-0.9-0.9c0-0.6,0.4-0.9,0.9-0.9
	c0.6,0,0.9,0.4,0.9,0.9C7.7,16.1,7.2,16.4,6.7,16.4z M19.7,14.6h-8.1c-0.6,0-0.8,0.4-0.8,0.8s0.4,0.8,0.8,0.8h8.1
	c0.6,0,0.8-0.4,0.8-0.8S20.1,14.6,19.7,14.6z"/>
</svg>
